<?xml version="1.0" encoding="utf-8"?>
<!-- Generator: Adobe Illustrator 16.0.0, SVG Export Plug-In . SVG Version: 6.00 Build 0)  -->
<svg version="1.2" baseProfile="tiny" id="Layer_1" xmlns="http://www.w3.org/2000/svg" xmlns:xlink="http://www.w3.org/1999/xlink"
	 x="0px" y="0px"  viewBox="0 0 1000 1000" xml:space="preserve">
<g>
	<g>
		<path fill="#231F20" d="M387.984,410.724h91.521v19.09h-33.689v94.329h-24.144v-94.891h-33.688V410.724L387.984,410.724z"/>
		<path fill="#231F20" d="M527.231,429.253h29.759c10.668,0,16.845,4.492,16.845,14.599s-6.177,15.16-16.845,15.722h-29.759V429.253
			z M527.231,478.664h25.829c0,0,15.721,34.812,17.967,44.918h29.759l-23.021-46.603c16.282-3.931,20.213-23.582,20.213-38.181
			c0-23.021-25.828-29.197-47.164-28.636h-48.288v113.419h24.144v-44.918H527.231z"/>
		<path fill="#231F20" d="M631.106,410.724h81.415v19.09h-56.71v26.39h52.218v19.091h-52.218v30.32h58.394v19.09h-83.099V410.724z"
			/>
		<path fill="#231F20" d="M811.342,523.582l-41.55-75.238l-0.562,0.562v75.238h-22.459V410.724h30.32l41.549,74.116l0.563-0.562
			v-73.554h22.459v113.419h-30.32V523.582z"/>
		<path fill="#231F20" d="M901.179,430.376h12.353c28.636-0.562,33.128,19.091,33.128,37.058c0,17.968-4.492,38.182-33.128,37.62
			h-12.353V430.376z M877.035,523.582h38.742c35.374,0.562,57.271-17.405,57.271-56.71c0-39.304-21.897-56.709-57.271-56.709
			h-38.742V523.582z"/>
		<path fill="#231F20" d="M463.784,616.788h-11.791v-49.41l-12.353,49.41h-12.353l-12.353-49.41v49.41h-11.791v-62.886h19.09
			l11.23,42.673l11.229-42.673h19.09V616.788L463.784,616.788z"/>
		<path fill="#231F20" d="M559.798,616.788h-12.914v-62.886h12.914V616.788z"/>
		<path fill="#231F20" d="M809.657,576.361c-0.562,1.685-2.246,2.808-3.931,3.369c-1.122,0.562-2.245,0.562-3.368,0.562
			c-1.685,0-3.369,0-6.177,0c-0.562,0-1.123,0-1.685,0h-9.545V564.57h10.106c4.492,0,7.3,0,8.984,0c1.123,0,2.807,0.562,3.93,1.123
			s2.246,1.685,2.246,2.808c0.562,1.123,0.562,2.246,0.562,3.931C810.219,574.115,809.657,575.238,809.657,576.361z M810.78,590.96
			c0,0,2.808-0.562,3.931-1.123c2.808-1.123,5.614-3.369,7.299-6.176c1.685-2.808,2.246-7.861,2.246-11.229
			c0-3.369-1.123-6.738-2.808-9.546c-1.685-3.368-4.491-5.614-7.86-6.737c-1.685-0.562-2.808-1.123-4.492-1.123
			c-2.246-0.562-5.614-0.562-10.106-0.562h-26.951v62.886h12.914v-24.705h12.353l13.476,24.705h15.16L810.78,590.96z"/>
		<path fill="#231F20" d="M935.43,603.313c-2.808,2.808-6.738,3.931-11.229,3.931c-3.369,0-6.738-1.123-8.984-2.808
			c-2.245-1.123-3.93-3.369-5.053-5.614c-1.123-1.685-1.685-3.369-2.246-5.054c-0.562-2.246-1.123-5.054-1.123-8.422
			c0-5.615,1.123-10.669,3.369-14.599c2.808-5.054,7.86-7.3,14.037-7.3c6.737,0,11.791,2.808,14.599,7.861
			c1.685,3.368,2.807,7.86,2.807,13.476C941.605,593.206,939.359,599.383,935.43,603.313z M947.221,562.324
			c-5.615-6.176-12.914-9.545-23.021-9.545c-9.546,0-17.406,2.808-22.46,8.983c-5.053,5.615-7.86,14.037-7.86,24.145
			c0,8.422,2.246,15.721,6.177,21.336c5.053,7.299,13.475,10.668,24.144,10.668c10.106,0,17.967-3.369,23.582-10.106
			c4.492-5.615,6.737-13.476,6.737-22.459C954.52,575.8,952.274,568.501,947.221,562.324z"/>
		<path fill="#231F20" d="M682.763,574.677c-1.123-3.93-2.808-10.668-14.037-10.668c-6.177,0-15.722,3.931-15.722,21.898
			c0,11.229,4.492,21.336,15.722,21.336c7.299,0,12.353-3.931,14.037-11.791h12.914c-2.808,13.476-11.229,23.021-26.951,23.021
			c-16.845,0-28.636-11.229-28.636-32.565c0-21.898,12.353-33.128,28.636-33.128c18.528,0,26.39,12.914,26.951,21.897H682.763z"/>
		<path fill="#231F20" d="M977.541,530.882h-6.738v17.967h-2.808v-17.967h-6.737v-2.246h16.283V530.882z"/>
		<path fill="#231F20" d="M1000,548.849h-2.808v-16.844l-6.176,16.844h-2.246l-5.615-17.405v17.405h-2.808v-20.213h3.931
			l5.054,14.599c0,0,0,0.562,0.562,1.685c0,0.562,0.562,1.123,0.562,1.123l1.123-3.369l5.053-14.037H1000V548.849z"/>
		<g>
			<path fill="#D71920" d="M30.881,532.005v-0.562c0-0.562,0.562-1.123,0.562-1.685s0.562-1.123,0.562-1.685
				c0,0,0-0.562,0.562-0.562c3.369-7.86,7.299-15.722,11.791-23.582c0.562-1.123,1.123-2.808,1.685-3.931H25.828l5.053-11.229
				c16.845-4.492,44.357-14.037,70.747-39.304h0.562h14.037l-17.968,38.742h29.197L122.403,500H93.206
				c0,0-13.476,26.951-17.967,46.603c-3.369,21.898,0,37.62,19.09,43.796c11.791,3.931,26.951,2.808,43.234-1.685
				c37.62-11.791,77.485-37.619,106.682-71.869c48.288-56.148,49.411-113.42,2.246-128.018
				c-30.32-9.545-72.993,1.123-112.296,24.705c49.41-32.004,103.313-46.603,140.371-34.812c6.738,2.246,12.914,5.053,17.967,8.984
				c-30.32-34.812-74.677-56.148-124.087-56.148C75.239,331.555,0,406.794,0,500c0,34.25,10.106,66.255,28.074,92.645
				C21.336,576.361,22.459,555.587,30.881,532.005z"/>
			<path fill="#D71920" d="M311.062,410.724c11.229,30.32-2.808,76.362-41.55,121.281
				c-58.395,67.938-150.478,108.927-206.064,92.083c-6.737-2.246-12.914-5.054-17.967-8.984
				c30.882,33.128,74.677,53.341,122.965,53.341c93.206,0,168.445-75.238,168.445-168.444
				C336.89,467.434,327.344,436.553,311.062,410.724z"/>
		</g>
	</g>
</g>
</svg>
